# xmcd
#
# Track frame offsets: 
#        150
#        14869
#        31501
#        44751
#        62726
#        75702
#        89581
#        106336
#        122655
#        135834
#        154365
#        172580
#
# Disc length: 2546 seconds
#
# Revision: 0
# Processed by: cddbd v1.5.2PL0 Copyright (c) Steve Scherf et al.
# Submitted via: ExactAudioCopy v1.0b3
#
DISCID=9409f00c
DTITLE=Mo Pitney - Behind this Guitar
DYEAR=2016
DGENRE=
TTITLE0=Country
TTITLE1=Clean Up On Aisle Five
TTITLE2=Come Do A Little Life
TTITLE3=It's Just A Dog
TTITLE4=Everywhere
TTITLE5=Boy And A Girl Thing
TTITLE6=I Met Merle Haggard Today
TTITLE7=Take The Chance
TTITLE8=When I'm With You
TTITLE9=Love Her Like I Lost Her
TTITLE10=Behind This Guitar
TTITLE11=Give Me Jesus
EXTD=
EXTT0=
EXTT1=
EXTT2=
EXTT3=
EXTT4=
EXTT5=
EXTT6=
EXTT7=
EXTT8=
EXTT9=
EXTT10=
EXTT11=
PLAYORDER=
